. 
  
http://www.torrenting.com/        :     Greatest Movie Tracker on The Net!!!
 
http://www.Torrenting.com          :     Once & For all ;)


               www . Torrenting . Com 

(((((((((((((= Enjoy No RAR releases =))))))))))))))))))))


...................................NFO:....................................

.[img]http://img11.imageshack.us/img11/3291/marleymethepuppyyears.jpg[/img]


[color=blue][size=5][b]Marley.And.Me.The.Puppy.Years.2011.BDRip.XVID.AC3.HQ.Hive-CM8[/b][/size][/color]


[b]Thx Hive

CM8 Doing It Right The First Time :D


Source: Bluray

Video: 720x400 @bitrate 1800 2pass
Audio: English DTS to AC3 5.1 @448
Sample: yes included
Subs: yes englis in srt /subs[/b]


[url]http://www.imdb.com/title/tt1704614/[/url]


General
Complete name                    : Marley.And.Me.The.Puppy.Years.2011.BDRip.XVID.AC3.HQ.Hive-CM8.avi
Format                           : AVI
Format/Info                      : Audio Video Interleave
File size                        : 1.36 GiB
Duration                         : 1h 26mn
Overall bit rate                 : 2 256 Kbps
Writing application              : Nandub v1.0rc2
Writing library                  : Nandub build 1853/release

Video
ID                               : 0
Format                           : MPEG-4 Visual
Format profile                   : Advanced Simple@L5
Format settings, BVOP            : 1
Format settings, QPel            : Yes
Format settings, GMC             : No warppoints
Format settings, Matrix          : Default (H.263)
Muxing mode                      : Packed bitstream
Codec ID                         : XVID
Codec ID/Hint                    : XviD
Duration                         : 1h 26mn
Bit rate                         : 1 798 Kbps
Width                            : 720 pixels
Height                           : 400 pixels
Display aspect ratio             : 16:9
Frame rate                       : 23.976 fps
Color space                      : YUV
Chroma subsampling               : 4:2:0
Bit depth                        : 8 bits
Scan type                        : Progressive
Compression mode                 : Lossy
Bits/(Pixel*Frame)               : 0.260
Stream size                      : 1.08 GiB (80%)
Writing library                  : XviD 1.2.1 (UTC 2008-12-04)

Audio
ID                               : 1
Format                           : AC-3
Format/Info                      : Audio Coding 3
Mode extension                   : CM (complete main)
Codec ID                         : 2000
Duration                         : 1h 26mn
Bit rate mode                    : Constant
Bit rate                         : 448 Kbps
Channel(s)                       : 6 channels
Channel positions                : Front: L C R, Side: L R, LFE
Sampling rate                    : 48.0 KHz
Bit depth                        : 16 bits
Compression mode                 : Lossy
Stream size                      : 276 MiB (20%)
Alignment                        : Split accross interleaves
Interleave, duration             : 42 ms (1.00 video frame)
Interleave, preload duration     : 500 ms


Plot:
Marley is back for more tail-wagging fun, and this time he speaks! Join Marley
for his mischievous puppy years, as he and his summer pal, Bodie Grogan, wreak
havoc on a neighborhood dog contest. 

Cast:
Travis Turner    ...    Bodi Grogan
Donnelly Rhodes  ...    Fred Grogan
Merrilyn Gann    ...    Mrs. Crouch


[img]http://img820.imageshack.us/img820/8403/70465012.png[/img]
[img]http://img10.imageshack.us/img10/9567/mamarx.png[/img]
[img]http://img708.imageshack.us/img708/8578/mamama.png[/img]
[img]http://img845.imageshack.us/img845/104/mamamama.png[/img]
[img]http://img94.imageshack.us/img94/6668/mamamamama.png[/img]
[img]http://img839.imageshack.us/img839/8052/mamamamamama.png[/img]
[img]http://img32.imageshack.us/img32/3641/mamamamamamamay.png[/img]



Greetz

ViSiON,SiC,SANTi,3LT0N,YanKeeS,MAGNET,THC,T0XiC,LKRG,FANTASIA-PLAY,FANTASIA-M,BHRG,WBZ
D2U,IMAGiNE,FLAWL3SS,NOVA,Vik,Rapeseed,SAFC,goldadvance,MEMORY100,scumbag,Hero5,Pinnz
Unevano,KaN1vE,Wayne,cedrict wink,Mr Hive and all P2P groups
Great Work Guys :D

FYS

CM8@hushmail.com